<?xml version="1.0" encoding="UTF-8"?>
<svg viewBox="0 0 1760 968" xmlns="http://www.w3.org/2000/svg" style="width: 100%; height: auto;"><defs><marker id="arr" viewBox="0 0 10 10" refX="9" refY="5" markerWidth="7" markerHeight="7" orient="auto-start-reverse"><path d="M0,0 L10,5 L0,10 z" fill="#1C1917"/></marker><marker id="arrSkip" viewBox="0 0 10 10" refX="9" refY="5" markerWidth="7" markerHeight="7" orient="auto-start-reverse"><path d="M0,0 L10,5 L0,10 z" fill="#BE185D"/></marker></defs><g><g transform="translate(437.8, 0)"><rect x="0" y="13" width="14" height="14" rx="3" fill="#E0E7FF" stroke="#4338CA" stroke-width="1.3"/><text x="30" y="26" font-family="'IBM Plex Mono', ui-monospace, monospace" font-size="11.5" fill="#1C1917">Quantum (VQC)</text></g><g transform="translate(584.2, 0)"><rect x="0" y="13" width="14" height="14" rx="3" fill="#C7D2FE" stroke="#3730A3" stroke-width="1.3"/><text x="30" y="26" font-family="'IBM Plex Mono', ui-monospace, monospace" font-size="11.5" fill="#1C1917">Quantum (attention)</text></g><g transform="translate(771.4000000000001, 0)"><rect x="0" y="13" width="14" height="14" rx="3" fill="#DCFCE7" stroke="#15803D" stroke-width="1.3"/><text x="30" y="26" font-family="'IBM Plex Mono', ui-monospace, monospace" font-size="11.5" fill="#1C1917">Classical</text></g><g transform="translate(890.6000000000001, 0)"><rect x="0" y="13" width="14" height="14" rx="3" fill="#F1F5F9" stroke="#475569" stroke-width="1.3"/><text x="30" y="26" font-family="'IBM Plex Mono', ui-monospace, monospace" font-size="11.5" fill="#1C1917">Linear / Norm</text></g><g transform="translate(1037, 0)"><rect x="0" y="13" width="14" height="14" rx="3" fill="#FEF3C7" stroke="#B45309" stroke-width="1.3"/><text x="30" y="26" font-family="'IBM Plex Mono', ui-monospace, monospace" font-size="11.5" fill="#1C1917">Input / Output</text></g><g transform="translate(1190.2, 0)"><line x1="0" y1="20" x2="20" y2="20" stroke="#BE185D" stroke-width="1.8" stroke-dasharray="4 3"/><text x="30" y="26" font-family="'IBM Plex Mono', ui-monospace, monospace" font-size="11.5" fill="#1C1917">Skip connection</text></g></g><line x1="60" y1="42" x2="1700" y2="42" stroke="#E7E5E4" stroke-width="1"/><g transform="translate(0, 44)"><text x="22" y="36" font-family="'Fraunces', 'Iowan Old Style', Georgia, serif" font-size="15" font-style="italic" fill="#78716C">(a)</text><text x="220" y="32" text-anchor="middle" font-family="'Fraunces', 'Iowan Old Style', Georgia, serif" font-size="24" font-weight="500" letter-spacing="-0.02em" fill="#1C1917">FC-VQC</text><text x="220" y="52" text-anchor="middle" font-family="'IBM Plex Mono', ui-monospace, monospace" font-size="11" fill="#78716C" letter-spacing="0.05em">Fully connected  ·  funnel</text><g transform="translate(0, 64)"><g><g><rect x="135" y="24" width="170" height="38" rx="8" ry="8" fill="#FEF3C7" stroke="#B45309" stroke-width="1.5"/><text x="220" y="40" text-anchor="middle" font-family="'IBM Plex Sans', ui-sans-serif, system-ui, sans-serif" font-size="13" font-weight="600" fill="#78350F">Input  x</text><text x="220" y="54" text-anchor="middle" font-family="'IBM Plex Mono', ui-monospace, monospace" font-size="10.5" fill="#78350F" opacity="0.82">13 features</text></g><line x1="220" y1="62" x2="220" y2="96" stroke="#1C1917" stroke-width="1.25" marker-end="url(#arr)"/><g><rect x="115" y="96" width="210" height="44" rx="8" ry="8" fill="#F1F5F9" stroke="#475569" stroke-width="1.5"/><text x="220" y="115" text-anchor="middle" font-family="'IBM Plex Sans', ui-sans-serif, system-ui, sans-serif" font-size="13" font-weight="600" fill="#334155">Linear Encoding</text><text x="220" y="129" text-anchor="middle" font-family="'IBM Plex Mono', ui-monospace, monospace" font-size="10.5" fill="#334155" opacity="0.82">13 → 16</text></g><line x1="220" y1="140" x2="220" y2="180" stroke="#1C1917" stroke-width="1.25" marker-end="url(#arr)"/><g><rect x="55" y="180" width="330" height="96" rx="8" ry="8" fill="#E0E7FF" stroke="#4338CA" stroke-width="1.5"/><text x="220" y="218" text-anchor="middle" font-family="'IBM Plex Sans', ui-sans-serif, system-ui, sans-serif" font-size="13" font-weight="600" fill="#312E81">VQC Block 1 · 16 qubits</text><text x="220" y="232" text-anchor="middle" font-family="'IBM Plex Mono', ui-monospace, monospace" font-size="10.5" fill="#312E81" opacity="0.82">StronglyEntanglingLayers</text><text x="220" y="246" text-anchor="middle" font-family="'IBM Plex Mono', ui-monospace, monospace" font-size="10.5" fill="#312E81" opacity="0.82">depth = 3 · measure all</text></g><g opacity="0.55"><circle cx="75" cy="260" r="2.8" fill="#3730A3"/><circle cx="94.5" cy="260" r="2.8" fill="#3730A3"/><circle cx="114" cy="260" r="2.8" fill="#3730A3"/><circle cx="133.5" cy="260" r="2.8" fill="#3730A3"/><circle cx="153" cy="260" r="2.8" fill="#3730A3"/><circle cx="172.5" cy="260" r="2.8" fill="#3730A3"/><circle cx="192" cy="260" r="2.8" fill="#3730A3"/><circle cx="211.5" cy="260" r="2.8" fill="#3730A3"/><circle cx="231" cy="260" r="2.8" fill="#3730A3"/><circle cx="250.5" cy="260" r="2.8" fill="#3730A3"/><circle cx="270" cy="260" r="2.8" fill="#3730A3"/><circle cx="289.5" cy="260" r="2.8" fill="#3730A3"/><circle cx="309" cy="260" r="2.8" fill="#3730A3"/><circle cx="328.5" cy="260" r="2.8" fill="#3730A3"/><circle cx="348" cy="260" r="2.8" fill="#3730A3"/><circle cx="367.5" cy="260" r="2.8" fill="#3730A3"/><line x1="72" y1="260" x2="368" y2="260" stroke="#3730A3" stroke-width="0.8"/></g><line x1="220" y1="276" x2="220" y2="312" stroke="#1C1917" stroke-width="1.25" marker-end="url(#arr)"/><g><rect x="95" y="312" width="250" height="58" rx="8" ry="8" fill="#F1F5F9" stroke="#475569" stroke-width="1.5"/><text x="220" y="331" text-anchor="middle" font-family="'IBM Plex Sans', ui-sans-serif, system-ui, sans-serif" font-size="13" font-weight="600" fill="#334155">Linear  (16 → 4)</text><text x="220" y="345" text-anchor="middle" font-family="'IBM Plex Mono', ui-monospace, monospace" font-size="10.5" fill="#334155" opacity="0.82">Type-4 fully connected</text><text x="220" y="359" text-anchor="middle" font-family="'IBM Plex Mono', ui-monospace, monospace" font-size="10.5" fill="#334155" opacity="0.82">Type-3 circular shift</text></g><line x1="220" y1="370" x2="220" y2="406" stroke="#1C1917" stroke-width="1.25" marker-end="url(#arr)"/><g><rect x="110" y="406" width="220" height="86" rx="8" ry="8" fill="#E0E7FF" stroke="#4338CA" stroke-width="1.5"/><text x="220" y="439" text-anchor="middle" font-family="'IBM Plex Sans', ui-sans-serif, system-ui, sans-serif" font-size="13" font-weight="600" fill="#312E81">VQC Block 2 · 4 qubits</text><text x="220" y="453" text-anchor="middle" font-family="'IBM Plex Mono', ui-monospace, monospace" font-size="10.5" fill="#312E81" opacity="0.82">StronglyEntanglingLayers</text><text x="220" y="467" text-anchor="middle" font-family="'IBM Plex Mono', ui-monospace, monospace" font-size="10.5" fill="#312E81" opacity="0.82">depth = 3</text></g><g opacity="0.55"><circle cx="180" cy="474" r="3.2" fill="#3730A3"/><circle cx="206" cy="474" r="3.2" fill="#3730A3"/><circle cx="232" cy="474" r="3.2" fill="#3730A3"/><circle cx="258" cy="474" r="3.2" fill="#3730A3"/><line x1="175" y1="474" x2="265" y2="474" stroke="#3730A3" stroke-width="0.8"/></g><line x1="220" y1="492" x2="220" y2="528" stroke="#1C1917" stroke-width="1.25" marker-end="url(#arr)"/><g><rect x="145" y="528" width="150" height="40" rx="8" ry="8" fill="#F1F5F9" stroke="#475569" stroke-width="1.5"/><text x="220" y="552" text-anchor="middle" font-family="'IBM Plex Sans', ui-sans-serif, system-ui, sans-serif" font-size="13" font-weight="600" fill="#334155">Linear (4 → 1)</text></g><line x1="220" y1="568" x2="220" y2="600" stroke="#1C1917" stroke-width="1.25" marker-end="url(#arr)"/><g><rect x="150" y="600" width="140" height="78" rx="8" ry="8" fill="#E0E7FF" stroke="#4338CA" stroke-width="1.5"/><text x="220" y="636" text-anchor="middle" font-family="'IBM Plex Sans', ui-sans-serif, system-ui, sans-serif" font-size="13" font-weight="600" fill="#312E81">VQC Block 3</text><text x="220" y="650" text-anchor="middle" font-family="'IBM Plex Mono', ui-monospace, monospace" font-size="10.5" fill="#312E81" opacity="0.82">1 qubit · depth = 3</text></g><g opacity="0.55"><circle cx="220" cy="662" r="3.4" fill="#3730A3"/></g><line x1="220" y1="678" x2="220" y2="714" stroke="#1C1917" stroke-width="1.25" marker-end="url(#arr)"/><g><rect x="165" y="714" width="110" height="38" rx="8" ry="8" fill="#FEF3C7" stroke="#B45309" stroke-width="1.5"/><text x="220" y="737" text-anchor="middle" font-family="'IBM Plex Sans', ui-sans-serif, system-ui, sans-serif" font-size="13" font-weight="600" fill="#78350F">Output  ŷ</text></g><g opacity="0.12"><line x1="55" y1="182" x2="150" y2="602" stroke="#4338CA" stroke-width="1"/><line x1="385" y1="182" x2="290" y2="602" stroke="#4338CA" stroke-width="1"/></g><text x="22" y="168" font-family="'IBM Plex Mono', ui-monospace, monospace" font-size="10" fill="#78716C" letter-spacing="0.1em">N Q U B I T S  ↓</text></g></g></g><g transform="translate(440, 44)"><line x1="0" y1="24" x2="0" y2="900" stroke="#E7E5E4" stroke-width="1"/><text x="22" y="36" font-family="'Fraunces', 'Iowan Old Style', Georgia, serif" font-size="15" font-style="italic" fill="#78716C">(b)</text><text x="220" y="32" text-anchor="middle" font-family="'Fraunces', 'Iowan Old Style', Georgia, serif" font-size="24" font-weight="500" letter-spacing="-0.02em" fill="#1C1917">ResNet-VQC</text><text x="220" y="52" text-anchor="middle" font-family="'IBM Plex Mono', ui-monospace, monospace" font-size="11" fill="#78716C" letter-spacing="0.05em">Residual skip connections</text><g transform="translate(0, 64)"><g><g><rect x="105" y="24" width="130" height="38" rx="8" ry="8" fill="#FEF3C7" stroke="#B45309" stroke-width="1.5"/><text x="170" y="47" text-anchor="middle" font-family="'IBM Plex Sans', ui-sans-serif, system-ui, sans-serif" font-size="13" font-weight="600" fill="#78350F">Input  x</text></g><line x1="170" y1="62" x2="170" y2="96" stroke="#1C1917" stroke-width="1.25" marker-end="url(#arr)"/><g><rect x="75" y="96" width="190" height="42" rx="8" ry="8" fill="#F1F5F9" stroke="#475569" stroke-width="1.5"/><text x="170" y="121" text-anchor="middle" font-family="'IBM Plex Sans', ui-sans-serif, system-ui, sans-serif" font-size="13" font-weight="600" fill="#334155">Linear Encoding</text></g><line x1="170" y1="138" x2="170" y2="170" stroke="#1C1917" stroke-width="1.25"/><circle cx="170" cy="170" r="3.5" fill="#1C1917"/><text x="184" y="174" font-family="'IBM Plex Mono', ui-monospace, monospace" font-size="11" fill="#78716C">z₀</text><line x1="170" y1="170" x2="170" y2="200" stroke="#1C1917" stroke-width="1.25" marker-end="url(#arr)"/><g><rect x="70" y="200" width="200" height="60" rx="8" ry="8" fill="#E0E7FF" stroke="#4338CA" stroke-width="1.5"/><text x="170" y="220" text-anchor="middle" font-family="'IBM Plex Sans', ui-sans-serif, system-ui, sans-serif" font-size="13" font-weight="600" fill="#312E81">VQC Block 1</text><text x="170" y="234" text-anchor="middle" font-family="'IBM Plex Mono', ui-monospace, monospace" font-size="10.5" fill="#312E81" opacity="0.82">StronglyEntanglingLayers</text><text x="170" y="248" text-anchor="middle" font-family="'IBM Plex Mono', ui-monospace, monospace" font-size="10.5" fill="#312E81" opacity="0.82">depth = 3</text></g><line x1="170" y1="260" x2="170" y2="300" stroke="#1C1917" stroke-width="1.25" marker-end="url(#arr)"/><g><circle cx="170" cy="312" r="11" fill="#FFFFFF" stroke="#1C1917" stroke-width="1.5"/><line x1="163.95" y1="312" x2="176.05" y2="312" stroke="#1C1917" stroke-width="1.3"/><line x1="170" y1="305.95" x2="170" y2="318.05" stroke="#1C1917" stroke-width="1.3"/></g><text x="192" y="304" font-family="'IBM Plex Mono', ui-monospace, monospace" font-size="11" fill="#78716C">z₁ = VQC₁(z₀) + z₀</text><g><path d="&#10;    M 170 170&#10;    L 360  170&#10;    L 360  312&#10;    L 181 312&#10;  " fill="none" stroke="#BE185D" stroke-width="1.25" stroke-dasharray="5 3" marker-end="url(#arrSkip)"/><text x="366" y="244" font-family="'IBM Plex Mono', ui-monospace, monospace" font-size="10.5" fill="#BE185D" font-style="italic">skip</text></g><line x1="170" y1="323" x2="170" y2="354" stroke="#1C1917" stroke-width="1.25"/><circle cx="170" cy="354" r="3.5" fill="#1C1917"/><line x1="170" y1="354" x2="170" y2="384" stroke="#1C1917" stroke-width="1.25" marker-end="url(#arr)"/><g><rect x="70" y="384" width="200" height="60" rx="8" ry="8" fill="#E0E7FF" stroke="#4338CA" stroke-width="1.5"/><text x="170" y="404" text-anchor="middle" font-family="'IBM Plex Sans', ui-sans-serif, system-ui, sans-serif" font-size="13" font-weight="600" fill="#312E81">VQC Block 2</text><text x="170" y="418" text-anchor="middle" font-family="'IBM Plex Mono', ui-monospace, monospace" font-size="10.5" fill="#312E81" opacity="0.82">StronglyEntanglingLayers</text><text x="170" y="432" text-anchor="middle" font-family="'IBM Plex Mono', ui-monospace, monospace" font-size="10.5" fill="#312E81" opacity="0.82">depth = 3</text></g><line x1="170" y1="444" x2="170" y2="484" stroke="#1C1917" stroke-width="1.25" marker-end="url(#arr)"/><g><circle cx="170" cy="496" r="11" fill="#FFFFFF" stroke="#1C1917" stroke-width="1.5"/><line x1="163.95" y1="496" x2="176.05" y2="496" stroke="#1C1917" stroke-width="1.3"/><line x1="170" y1="489.95" x2="170" y2="502.05" stroke="#1C1917" stroke-width="1.3"/></g><text x="192" y="488" font-family="'IBM Plex Mono', ui-monospace, monospace" font-size="11" fill="#78716C">z₂ = VQC₂(z₁) + z₁</text><g><path d="&#10;    M 170 354&#10;    L 360  354&#10;    L 360  496&#10;    L 181 496&#10;  " fill="none" stroke="#BE185D" stroke-width="1.25" stroke-dasharray="5 3" marker-end="url(#arrSkip)"/><text x="366" y="428" font-family="'IBM Plex Mono', ui-monospace, monospace" font-size="10.5" fill="#BE185D" font-style="italic">skip</text></g><line x1="170" y1="507" x2="170" y2="538" stroke="#1C1917" stroke-width="1.25"/><circle cx="170" cy="538" r="3.5" fill="#1C1917"/><line x1="170" y1="538" x2="170" y2="568" stroke="#1C1917" stroke-width="1.25" marker-end="url(#arr)"/><g><rect x="70" y="568" width="200" height="60" rx="8" ry="8" fill="#E0E7FF" stroke="#4338CA" stroke-width="1.5"/><text x="170" y="595" text-anchor="middle" font-family="'IBM Plex Sans', ui-sans-serif, system-ui, sans-serif" font-size="13" font-weight="600" fill="#312E81">VQC Block 3</text><text x="170" y="609" text-anchor="middle" font-family="'IBM Plex Mono', ui-monospace, monospace" font-size="10.5" fill="#312E81" opacity="0.82">m qubits · depth = 3</text></g><g><line x1="170" y1="538" x2="360" y2="538" stroke="#BE185D" stroke-dasharray="5 3" stroke-width="1.25"/><rect x="305" y="618" width="110" height="34" rx="6" fill="#FFF" stroke="#BE185D" stroke-width="1.25" stroke-dasharray="4 3"/><text x="360" y="639" text-anchor="middle" font-family="'IBM Plex Mono', ui-monospace, monospace" font-size="10.5" fill="#BE185D">Linear proj</text><line x1="360" y1="538" x2="360" y2="618" stroke="#BE185D" stroke-dasharray="5 3" stroke-width="1.25"/><line x1="360" y1="652" x2="360" y2="684" stroke="#BE185D" stroke-dasharray="5 3" stroke-width="1.25"/><path d="M 360 684 L 181 684" fill="none" stroke="#BE185D" stroke-dasharray="5 3" stroke-width="1.25" marker-end="url(#arrSkip)"/><text x="368" y="582" font-family="'IBM Plex Mono', ui-monospace, monospace" font-size="10.5" fill="#BE185D" font-style="italic">W · z₂</text></g><line x1="170" y1="628" x2="170" y2="672" stroke="#1C1917" stroke-width="1.25" marker-end="url(#arr)"/><g><circle cx="170" cy="684" r="11" fill="#FFFFFF" stroke="#1C1917" stroke-width="1.5"/><line x1="163.95" y1="684" x2="176.05" y2="684" stroke="#1C1917" stroke-width="1.3"/><line x1="170" y1="677.95" x2="170" y2="690.05" stroke="#1C1917" stroke-width="1.3"/></g><text x="192" y="676" font-family="'IBM Plex Mono', ui-monospace, monospace" font-size="11" fill="#78716C">z₃ = VQC₃(z₂) + W·z₂</text><line x1="170" y1="695" x2="170" y2="730" stroke="#1C1917" stroke-width="1.25" marker-end="url(#arr)"/><g><rect x="115" y="730" width="110" height="38" rx="8" ry="8" fill="#FEF3C7" stroke="#B45309" stroke-width="1.5"/><text x="170" y="753" text-anchor="middle" font-family="'IBM Plex Sans', ui-sans-serif, system-ui, sans-serif" font-size="13" font-weight="600" fill="#78350F">Output  ŷ</text></g></g></g></g><g transform="translate(880, 44)"><line x1="0" y1="24" x2="0" y2="900" stroke="#E7E5E4" stroke-width="1"/><text x="22" y="36" font-family="'Fraunces', 'Iowan Old Style', Georgia, serif" font-size="15" font-style="italic" fill="#78716C">(c)</text><text x="220" y="32" text-anchor="middle" font-family="'Fraunces', 'Iowan Old Style', Georgia, serif" font-size="24" font-weight="500" letter-spacing="-0.02em" fill="#1C1917">QT</text><text x="220" y="52" text-anchor="middle" font-family="'IBM Plex Mono', ui-monospace, monospace" font-size="11" fill="#78716C" letter-spacing="0.05em">Hybrid  ·  classical MHA + VQC FFN</text><g transform="translate(0, 64)"><g><g><rect x="100" y="24" width="140" height="38" rx="8" ry="8" fill="#FEF3C7" stroke="#B45309" stroke-width="1.5"/><text x="170" y="40" text-anchor="middle" font-family="'IBM Plex Sans', ui-sans-serif, system-ui, sans-serif" font-size="13" font-weight="600" fill="#78350F">Input  x</text><text x="170" y="54" text-anchor="middle" font-family="'IBM Plex Mono', ui-monospace, monospace" font-size="10.5" fill="#78350F" opacity="0.82">d features</text></g><line x1="170" y1="62" x2="170" y2="96" stroke="#1C1917" stroke-width="1.25" marker-end="url(#arr)"/><g><rect x="35" y="96" width="270" height="78" rx="8" ry="8" fill="#E0E7FF" stroke="#4338CA" stroke-width="1.5"/><text x="170" y="125" text-anchor="middle" font-family="'IBM Plex Sans', ui-sans-serif, system-ui, sans-serif" font-size="13" font-weight="600" fill="#312E81">VQC Encoder</text><text x="170" y="139" text-anchor="middle" font-family="'IBM Plex Mono', ui-monospace, monospace" font-size="10.5" fill="#312E81" opacity="0.82">AngleEmbedding →</text><text x="170" y="153" text-anchor="middle" font-family="'IBM Plex Mono', ui-monospace, monospace" font-size="10.5" fill="#312E81" opacity="0.82">StronglyEntangling · measure</text></g><line x1="170" y1="174" x2="170" y2="210" stroke="#1C1917" stroke-width="1.25"/><circle cx="170" cy="210" r="3.5" fill="#1C1917"/><text x="184" y="206" font-family="'IBM Plex Mono', ui-monospace, monospace" font-size="11" fill="#78716C">e ∈ ℝᵈ</text><line x1="170" y1="210" x2="170" y2="240" stroke="#1C1917" stroke-width="1.25" marker-end="url(#arr)"/><g><rect x="40" y="240" width="260" height="92" rx="8" ry="8" fill="#DCFCE7" stroke="#15803D" stroke-width="1.5"/><text x="170" y="276" text-anchor="middle" font-family="'IBM Plex Sans', ui-sans-serif, system-ui, sans-serif" font-size="13" font-weight="600" fill="#14532D">Classical MHA</text><text x="170" y="290" text-anchor="middle" font-family="'IBM Plex Mono', ui-monospace, monospace" font-size="10.5" fill="#14532D" opacity="0.82">H heads · Linear Q, K, V</text><text x="170" y="304" text-anchor="middle" font-family="'IBM Plex Mono', ui-monospace, monospace" font-size="10.5" fill="#14532D" opacity="0.82">concat + projection</text></g><g opacity="0.9"><g><rect x="100" y="305" width="46" height="14" rx="3" fill="#FFF" stroke="#15803D" stroke-width="1"/><text x="123" y="315" text-anchor="middle" font-family="'IBM Plex Mono', ui-monospace, monospace" font-size="9" fill="#14532D">Head 1</text></g><g><rect x="150" y="305" width="46" height="14" rx="3" fill="#FFF" stroke="#15803D" stroke-width="1"/><text x="173" y="315" text-anchor="middle" font-family="'IBM Plex Mono', ui-monospace, monospace" font-size="9" fill="#14532D">Head 2</text></g><g><rect x="200" y="305" width="46" height="14" rx="3" fill="#FFF" stroke="#15803D" stroke-width="1"/><text x="223" y="315" text-anchor="middle" font-family="'IBM Plex Mono', ui-monospace, monospace" font-size="9" fill="#14532D">Head H</text></g></g><line x1="170" y1="332" x2="170" y2="372" stroke="#1C1917" stroke-width="1.25" marker-end="url(#arr)"/><g><circle cx="170" cy="384" r="11" fill="#FFFFFF" stroke="#1C1917" stroke-width="1.5"/><line x1="163.95" y1="384" x2="176.05" y2="384" stroke="#1C1917" stroke-width="1.3"/><line x1="170" y1="377.95" x2="170" y2="390.05" stroke="#1C1917" stroke-width="1.3"/></g><g><path d="&#10;    M 170 210&#10;    L 355  210&#10;    L 355  384&#10;    L 181 384&#10;  " fill="none" stroke="#BE185D" stroke-width="1.25" stroke-dasharray="5 3" marker-end="url(#arrSkip)"/><text x="361" y="300" font-family="'IBM Plex Mono', ui-monospace, monospace" font-size="10.5" fill="#BE185D" font-style="italic">skip</text></g><line x1="170" y1="395" x2="170" y2="422" stroke="#1C1917" stroke-width="1.25" marker-end="url(#arr)"/><g><rect x="90" y="422" width="160" height="40" rx="8" ry="8" fill="#DCFCE7" stroke="#15803D" stroke-width="1.5"/><text x="170" y="446" text-anchor="middle" font-family="'IBM Plex Sans', ui-sans-serif, system-ui, sans-serif" font-size="13" font-weight="600" fill="#14532D">LayerNorm</text></g><line x1="170" y1="462" x2="170" y2="494" stroke="#1C1917" stroke-width="1.25"/><circle cx="170" cy="494" r="3.5" fill="#1C1917"/><line x1="170" y1="494" x2="170" y2="524" stroke="#1C1917" stroke-width="1.25" marker-end="url(#arr)"/><g><rect x="55" y="524" width="230" height="80" rx="8" ry="8" fill="#E0E7FF" stroke="#4338CA" stroke-width="1.5"/><text x="170" y="554" text-anchor="middle" font-family="'IBM Plex Sans', ui-sans-serif, system-ui, sans-serif" font-size="13" font-weight="600" fill="#312E81">VQC FFN</text><text x="170" y="568" text-anchor="middle" font-family="'IBM Plex Mono', ui-monospace, monospace" font-size="10.5" fill="#312E81" opacity="0.82">Encode → Entangle</text><text x="170" y="582" text-anchor="middle" font-family="'IBM Plex Mono', ui-monospace, monospace" font-size="10.5" fill="#312E81" opacity="0.82">→ Measure</text></g><line x1="170" y1="604" x2="170" y2="644" stroke="#1C1917" stroke-width="1.25" marker-end="url(#arr)"/><g><circle cx="170" cy="656" r="11" fill="#FFFFFF" stroke="#1C1917" stroke-width="1.5"/><line x1="163.95" y1="656" x2="176.05" y2="656" stroke="#1C1917" stroke-width="1.3"/><line x1="170" y1="649.95" x2="170" y2="662.05" stroke="#1C1917" stroke-width="1.3"/></g><g><path d="&#10;    M 170 494&#10;    L 355  494&#10;    L 355  656&#10;    L 181 656&#10;  " fill="none" stroke="#BE185D" stroke-width="1.25" stroke-dasharray="5 3" marker-end="url(#arrSkip)"/><text x="361" y="578" font-family="'IBM Plex Mono', ui-monospace, monospace" font-size="10.5" fill="#BE185D" font-style="italic">skip</text></g><line x1="170" y1="667" x2="170" y2="700" stroke="#1C1917" stroke-width="1.25" marker-end="url(#arr)"/><g><rect x="110" y="700" width="120" height="38" rx="8" ry="8" fill="#F1F5F9" stroke="#475569" stroke-width="1.5"/><text x="170" y="723" text-anchor="middle" font-family="'IBM Plex Sans', ui-sans-serif, system-ui, sans-serif" font-size="13" font-weight="600" fill="#334155">Linear</text></g><line x1="170" y1="738" x2="170" y2="772" stroke="#1C1917" stroke-width="1.25" marker-end="url(#arr)"/><g><rect x="115" y="772" width="110" height="38" rx="8" ry="8" fill="#FEF3C7" stroke="#B45309" stroke-width="1.5"/><text x="170" y="795" text-anchor="middle" font-family="'IBM Plex Sans', ui-sans-serif, system-ui, sans-serif" font-size="13" font-weight="600" fill="#78350F">Output  ŷ</text></g></g></g></g><g transform="translate(1320, 44)"><line x1="0" y1="24" x2="0" y2="900" stroke="#E7E5E4" stroke-width="1"/><text x="22" y="36" font-family="'Fraunces', 'Iowan Old Style', Georgia, serif" font-size="15" font-style="italic" fill="#78716C">(d)</text><text x="220" y="32" text-anchor="middle" font-family="'Fraunces', 'Iowan Old Style', Georgia, serif" font-size="24" font-weight="500" letter-spacing="-0.02em" fill="#1C1917">FQT</text><text x="220" y="52" text-anchor="middle" font-family="'IBM Plex Mono', ui-monospace, monospace" font-size="11" fill="#78716C" letter-spacing="0.05em">Fully quantum transformer</text><g transform="translate(0, 64)"><g><g><rect x="100" y="24" width="140" height="38" rx="8" ry="8" fill="#FEF3C7" stroke="#B45309" stroke-width="1.5"/><text x="170" y="40" text-anchor="middle" font-family="'IBM Plex Sans', ui-sans-serif, system-ui, sans-serif" font-size="13" font-weight="600" fill="#78350F">Input  x</text><text x="170" y="54" text-anchor="middle" font-family="'IBM Plex Mono', ui-monospace, monospace" font-size="10.5" fill="#78350F" opacity="0.82">d features</text></g><line x1="170" y1="62" x2="170" y2="96" stroke="#1C1917" stroke-width="1.25" marker-end="url(#arr)"/><g><rect x="35" y="96" width="270" height="78" rx="8" ry="8" fill="#E0E7FF" stroke="#4338CA" stroke-width="1.5"/><text x="170" y="125" text-anchor="middle" font-family="'IBM Plex Sans', ui-sans-serif, system-ui, sans-serif" font-size="13" font-weight="600" fill="#312E81">VQC Encoder</text><text x="170" y="139" text-anchor="middle" font-family="'IBM Plex Mono', ui-monospace, monospace" font-size="10.5" fill="#312E81" opacity="0.82">AngleEmbedding →</text><text x="170" y="153" text-anchor="middle" font-family="'IBM Plex Mono', ui-monospace, monospace" font-size="10.5" fill="#312E81" opacity="0.82">StronglyEntangling · measure</text></g><line x1="170" y1="174" x2="170" y2="210" stroke="#1C1917" stroke-width="1.25"/><circle cx="170" cy="210" r="3.5" fill="#1C1917"/><text x="184" y="206" font-family="'IBM Plex Mono', ui-monospace, monospace" font-size="11" fill="#78716C">e ∈ ℝᵈ</text><line x1="170" y1="210" x2="170" y2="240" stroke="#1C1917" stroke-width="1.25" marker-end="url(#arr)"/><g><rect x="35" y="240" width="270" height="102" rx="8" ry="8" fill="#C7D2FE" stroke="#3730A3" stroke-width="1.5"/><text x="170" y="281" text-anchor="middle" font-family="'IBM Plex Sans', ui-sans-serif, system-ui, sans-serif" font-size="13" font-weight="600" fill="#1E1B4B">Quantum Attention</text><text x="170" y="295" text-anchor="middle" font-family="'IBM Plex Mono', ui-monospace, monospace" font-size="10.5" fill="#1E1B4B" opacity="0.82">scores = Q · Kᵀ / √d</text><text x="170" y="309" text-anchor="middle" font-family="'IBM Plex Mono', ui-monospace, monospace" font-size="10.5" fill="#1E1B4B" opacity="0.82">→ softmax · V</text></g><g><g><rect x="80" y="314" width="48" height="18" rx="3" fill="#FFF" stroke="#3730A3" stroke-width="1"/><text x="104" y="327" text-anchor="middle" font-family="'IBM Plex Mono', ui-monospace, monospace" font-size="10" fill="#1E1B4B">VQC_Q</text></g><g><rect x="146" y="314" width="48" height="18" rx="3" fill="#FFF" stroke="#3730A3" stroke-width="1"/><text x="170" y="327" text-anchor="middle" font-family="'IBM Plex Mono', ui-monospace, monospace" font-size="10" fill="#1E1B4B">VQC_K</text></g><g><rect x="212" y="314" width="48" height="18" rx="3" fill="#FFF" stroke="#3730A3" stroke-width="1"/><text x="236" y="327" text-anchor="middle" font-family="'IBM Plex Mono', ui-monospace, monospace" font-size="10" fill="#1E1B4B">VQC_V</text></g></g><line x1="170" y1="342" x2="170" y2="382" stroke="#1C1917" stroke-width="1.25" marker-end="url(#arr)"/><g><circle cx="170" cy="394" r="11" fill="#FFFFFF" stroke="#1C1917" stroke-width="1.5"/><line x1="163.95" y1="394" x2="176.05" y2="394" stroke="#1C1917" stroke-width="1.3"/><line x1="170" y1="387.95" x2="170" y2="400.05" stroke="#1C1917" stroke-width="1.3"/></g><g><path d="&#10;    M 170 210&#10;    L 355  210&#10;    L 355  394&#10;    L 181 394&#10;  " fill="none" stroke="#BE185D" stroke-width="1.25" stroke-dasharray="5 3" marker-end="url(#arrSkip)"/><text x="361" y="305" font-family="'IBM Plex Mono', ui-monospace, monospace" font-size="10.5" fill="#BE185D" font-style="italic">skip</text></g><line x1="170" y1="405" x2="170" y2="434" stroke="#1C1917" stroke-width="1.25" marker-end="url(#arr)"/><g><rect x="60" y="434" width="220" height="38" rx="8" ry="8" fill="#F1F5F9" stroke="#475569" stroke-width="1.5" stroke-dasharray="4 3"/><text x="170" y="457" text-anchor="middle" font-family="'IBM Plex Mono', ui-monospace, monospace" font-size="12" font-weight="600" fill="#334155">— no LayerNorm —</text></g><text x="170" y="488" text-anchor="middle" font-family="'IBM Plex Mono', ui-monospace, monospace" font-size="10" fill="#78716C" font-style="italic">(+LN variant adds LayerNorm here)</text><line x1="170" y1="496" x2="170" y2="526" stroke="#1C1917" stroke-width="1.25"/><circle cx="170" cy="526" r="3.5" fill="#1C1917"/><line x1="170" y1="526" x2="170" y2="556" stroke="#1C1917" stroke-width="1.25" marker-end="url(#arr)"/><g><rect x="55" y="556" width="230" height="80" rx="8" ry="8" fill="#E0E7FF" stroke="#4338CA" stroke-width="1.5"/><text x="170" y="586" text-anchor="middle" font-family="'IBM Plex Sans', ui-sans-serif, system-ui, sans-serif" font-size="13" font-weight="600" fill="#312E81">VQC FFN</text><text x="170" y="600" text-anchor="middle" font-family="'IBM Plex Mono', ui-monospace, monospace" font-size="10.5" fill="#312E81" opacity="0.82">Encode → Entangle</text><text x="170" y="614" text-anchor="middle" font-family="'IBM Plex Mono', ui-monospace, monospace" font-size="10.5" fill="#312E81" opacity="0.82">→ Measure</text></g><line x1="170" y1="636" x2="170" y2="676" stroke="#1C1917" stroke-width="1.25" marker-end="url(#arr)"/><g><circle cx="170" cy="688" r="11" fill="#FFFFFF" stroke="#1C1917" stroke-width="1.5"/><line x1="163.95" y1="688" x2="176.05" y2="688" stroke="#1C1917" stroke-width="1.3"/><line x1="170" y1="681.95" x2="170" y2="694.05" stroke="#1C1917" stroke-width="1.3"/></g><g><path d="&#10;    M 170 526&#10;    L 355  526&#10;    L 355  688&#10;    L 181 688&#10;  " fill="none" stroke="#BE185D" stroke-width="1.25" stroke-dasharray="5 3" marker-end="url(#arrSkip)"/><text x="361" y="610" font-family="'IBM Plex Mono', ui-monospace, monospace" font-size="10.5" fill="#BE185D" font-style="italic">skip</text></g><line x1="170" y1="699" x2="170" y2="732" stroke="#1C1917" stroke-width="1.25" marker-end="url(#arr)"/><g><rect x="110" y="732" width="120" height="38" rx="8" ry="8" fill="#F1F5F9" stroke="#475569" stroke-width="1.5"/><text x="170" y="755" text-anchor="middle" font-family="'IBM Plex Sans', ui-sans-serif, system-ui, sans-serif" font-size="13" font-weight="600" fill="#334155">Linear</text></g><line x1="170" y1="770" x2="170" y2="800" stroke="#1C1917" stroke-width="1.25" marker-end="url(#arr)"/><g><rect x="115" y="800" width="110" height="32" rx="8" ry="8" fill="#FEF3C7" stroke="#B45309" stroke-width="1.5"/><text x="170" y="820" text-anchor="middle" font-family="'IBM Plex Sans', ui-sans-serif, system-ui, sans-serif" font-size="13" font-weight="600" fill="#78350F">Output  ŷ</text></g></g></g></g></svg>